# xmcd
#
# Track frame offsets:
#	150
#	11478
#	24043
#	37658
#	51062
#	63693
#	76958
#	90478
#	104740
#	120514
#	134684
#	147871
#	162697
#	175958
#	191488
#	205305
#	219964
#	232537
#	246786
#	259254
#	271732
#
# Disc length: 3809 seconds
#
# Revision: 0
# Processed by: cddbd v1.5.2PL0 Copyright (c) Steve Scherf et al.
# Submitted via: audiograbber 1.83.01
#
DISCID=1a0edf15
DTITLE=John Lee Williamson - Blues Archive 12_CD1
DYEAR=2004
DGENRE=Blues
TTITLE0=Worried Be Blues (1937)
TTITLE1=Black Gal Blues (1937)
TTITLE2=Frigidaire Blues (1937)
TTITLE3=Suzanna Blues (1937)
TTITLE4=Early In The Morning (1937)
TTITLE5=Sugar Mama Blues (1937)
TTITLE6=Skin Woman (1937)
TTITLE7=My Little Cornelia (1938)
TTITLE8=Decoration Blues (1938)
TTITLE9=You Can Lead Me (1938)
TTITLE10=Miss Luisa Blues (1938)
TTITLE11=Sunnyland (1938)
TTITLE12=I'm Tired Trucking My blues Away (1938)
TTITLE13=Beauty Parlour (1938)
TTITLE14=My Baby I've Been Your Slave (1938)
TTITLE15=Doggin' My Love Around (1939)
TTITLE16=Little Low Woman Blues (1939)
TTITLE17=Sugar Mama Blues No 2 (1939)
TTITLE18=Good Gal Blues (1939)
TTITLE19=I'm Not Pleasing You (1939)
TTITLE20=Honey Bee Blues (1939)
EXTD=
EXTT0=
EXTT1=
EXTT2=
EXTT3=
EXTT4=
EXTT5=
EXTT6=
EXTT7=
EXTT8=
EXTT9=
EXTT10=
EXTT11=
EXTT12=
EXTT13=
EXTT14=
EXTT15=
EXTT16=
EXTT17=
EXTT18=
EXTT19=
EXTT20=by cml Ledeburgh 2018
PLAYORDER=
